<svg xmlns="http://www.w3.org/2000/svg" xmlns:xlink="http://www.w3.org/1999/xlink" width="500" zoomAndPan="magnify" viewBox="0 0 375 374.999991" height="500" preserveAspectRatio="xMidYMid meet" version="1.0"><defs><clipPath id="1e99730ada"><path d="M 0 26.953125 L 375 26.953125 L 375 347.953125 L 0 347.953125 Z M 0 26.953125 " clip-rule="nonzero"/></clipPath></defs><rect x="-37.5" width="450" fill="#ffffff" y="-37.499999" height="449.999989" fill-opacity="1"/><rect x="-37.5" width="450" fill="#f7e5ff" y="-37.499999" height="449.999989" fill-opacity="1"/><g clip-path="url(#1e99730ada)"><path fill="#ffffff" d="M 374.984375 163.976562 C 374.984375 88.328125 291.050781 26.953125 187.5 26.953125 C 83.949219 26.953125 0.015625 88.328125 0.015625 163.976562 C 0.015625 232.1875 68.320312 288.832031 157.667969 299.273438 C 171.71875 335.03125 227.628906 347.953125 227.628906 347.953125 C 227.628906 347.953125 201.25 326.917969 202.003906 300.625 C 298.789062 295.21875 374.984375 236.09375 374.984375 163.976562 Z M 374.984375 163.976562 " fill-opacity="1" fill-rule="nonzero"/></g></svg>